<?xml version="1.0" standalone="no"?>
<!DOCTYPE svg PUBLIC "-//W3C//DTD SVG 20010904//EN"
 "http://www.w3.org/TR/2001/REC-SVG-20010904/DTD/svg10.dtd">
<svg version="1.0" xmlns="http://www.w3.org/2000/svg"
 width="100" height="100" viewBox="0 0 750.000000 705.000000"
 preserveAspectRatio="xMidYMid meet">

<g transform="translate(0.000000,705.000000) scale(0.100000,-0.100000)"
fill="#333" stroke="none">
<path d="M4270 5436 c-390 -144 -813 -658 -980 -1191 -17 -55 -35 -107 -39
-115 -6 -11 -36 -17 -117 -22 -546 -36 -988 -384 -1168 -918 -100 -299 -120
-664 -50 -935 48 -185 189 -367 344 -445 176 -89 408 -109 625 -54 196 50 343
194 418 409 61 174 69 289 65 963 l-3 544 -33 29 c-52 47 -137 37 -167 -20
-13 -26 -15 -104 -15 -593 0 -316 -5 -602 -10 -653 -39 -340 -192 -490 -500
-488 -169 1 -282 40 -372 126 -140 136 -194 346 -168 662 28 357 148 643 354
846 126 124 274 213 431 259 39 11 88 26 110 33 26 8 110 12 245 12 193 -1
210 -2 295 -28 148 -44 247 -100 340 -192 45 -44 96 -101 113 -127 50 -74 116
-212 166 -348 77 -208 117 -269 210 -318 l51 -27 286 -5 c322 -6 322 -6 332
-78 8 -65 -10 -209 -39 -298 -78 -247 -269 -395 -579 -450 -235 -41 -415 3
-583 142 -83 68 -151 69 -192 2 -42 -70 -17 -125 95 -208 136 -100 297 -159
460 -167 323 -16 623 90 818 290 157 160 236 372 237 629 0 152 -18 206 -94
275 -29 27 -70 55 -92 62 -28 10 -120 16 -320 20 -306 7 -294 4 -328 69 -9 17
-32 78 -52 134 -83 237 -201 437 -335 564 -134 127 -335 231 -504 259 -22 4
-43 9 -47 11 -10 7 64 209 117 320 140 291 334 540 543 697 35 26 68 44 73 41
5 -3 9 -99 9 -214 l0 -210 29 -32 29 -33 179 -1 c208 -1 294 -18 430 -85 245
-121 368 -352 348 -651 l-7 -97 43 -84 c52 -104 50 -118 -34 -202 -72 -72
-159 -118 -262 -140 -85 -18 -131 -19 -230 -4 -118 18 -165 -12 -165 -102 0
-41 4 -51 35 -78 20 -17 41 -31 48 -31 7 0 50 -5 95 -10 166 -21 357 17 493
97 86 51 216 181 262 264 52 93 50 125 -14 247 -49 93 -51 100 -45 155 8 75
-9 228 -33 317 -65 233 -213 405 -450 525 -63 31 -147 59 -211 70 -25 4 -50
11 -56 16 -6 5 -67 12 -137 15 l-127 7 0 229 c0 262 -6 289 -64 313 -42 18
-59 18 -106 1z"/>
<path d="M4850 4119 c-55 -22 -100 -85 -100 -139 0 -103 102 -174 204 -140 88
29 121 148 62 224 -44 58 -107 78 -166 55z"/>
<path d="M3789 3087 c-70 -46 -90 -144 -44 -208 49 -66 129 -87 201 -53 100
48 112 199 20 262 -45 31 -130 31 -177 -1z"/>
</g>
</svg>
